<?xml version="1.0" encoding="UTF-8" standalone="no"?><!DOCTYPE svg PUBLIC "-//W3C//DTD SVG 1.1//EN" "http://www.w3.org/Graphics/SVG/1.1/DTD/svg11.dtd"><svg width="100%" height="100%" viewBox="0 0 1194 1194" version="1.1" xmlns="http://www.w3.org/2000/svg" xmlns:xlink="http://www.w3.org/1999/xlink" xml:space="preserve" xmlns:serif="http://www.serif.com/" style="fill-rule:evenodd;clip-rule:evenodd;stroke-linejoin:round;stroke-miterlimit:2;"><g id="_8" serif:id="8"><g id="Eight"><circle cx="596.51" cy="596.51" r="596.51" style="fill:#ed1c24;"/><path d="M400.558,470.161c-13.493,-43.687 -15.31,-91.376 -2.821,-138.491c35.959,-135.657 176.981,-215.519 314.722,-178.231c137.741,37.288 220.376,177.696 184.417,313.353c-12.587,47.487 -38.049,88.137 -71.736,119.252c-25.421,-43.335 -61.377,-80.705 -105.424,-107.91c14.708,-13.066 25.842,-30.433 31.252,-50.841c14.936,-56.346 -19.387,-114.667 -76.6,-130.155c-57.212,-15.488 -115.787,17.684 -130.723,74.031c-5.409,20.407 -4.357,41.074 1.918,59.82l0.261,0.776c11.176,32.802 38.215,59.757 74.421,69.558c36.491,9.879 73.536,-0.038 99.471,-23.189c44.061,27.246 80.024,64.613 105.424,107.91l0.931,1.596c39.201,67.703 52.743,149.766 31.361,230.43c-43.174,162.876 -212.493,258.763 -377.872,213.993c-165.379,-44.77 -264.595,-213.352 -221.421,-376.228c21.55,-81.299 74.529,-145.908 142.74,-184.643l-0.321,-1.031Zm1.179,3.729c18.324,56.561 56.185,106.219 107.743,139.089c-38.728,14.313 -69.966,46.31 -81.255,88.9c-18.667,70.424 24.231,143.315 95.738,162.673c71.506,19.358 144.716,-22.102 163.384,-92.526c11.289,-42.59 0.061,-86.083 -26.4,-118.044c60.912,-2.422 118.267,-26.304 162.115,-66.034c-43.847,39.728 -101.2,63.61 -162.14,66.004c-17.281,-20.951 -41.065,-36.952 -69.313,-44.599c-28.248,-7.648 -56.762,-5.804 -82.092,3.612c-51.596,-32.859 -89.456,-82.515 -107.78,-139.075Zm422.367,113.109l-0.724,0.659l0.724,-0.659Zm-422.8,-114.457l0.301,0.937l-0.301,-0.937Z" style="fill:#eee;"/></g></g></svg>