<?xml version="1.0" encoding="UTF-8" standalone="no"?><!DOCTYPE svg PUBLIC "-//W3C//DTD SVG 1.1//EN" "http://www.w3.org/Graphics/SVG/1.1/DTD/svg11.dtd"><svg width="100%" height="100%" viewBox="0 0 2558 517" version="1.1" xmlns="http://www.w3.org/2000/svg" xmlns:xlink="http://www.w3.org/1999/xlink" xml:space="preserve" xmlns:serif="http://www.serif.com/" style="fill-rule:evenodd;clip-rule:evenodd;stroke-linejoin:round;stroke-miterlimit:2;"><g id="FreeSans-4-degree-tilt-White" serif:id="FreeSans 4 degree tilt White"><g id="_8" serif:id="8"><g id="Eight"><circle cx="2301.16" cy="256.126" r="256.126" style="fill:#ed1c24;"/><path d="M2217.03,201.875c-5.794,-18.758 -6.574,-39.235 -1.211,-59.465c15.439,-58.247 75.991,-92.538 135.133,-76.527c59.143,16.01 94.624,76.298 79.184,134.545c-5.405,20.39 -16.337,37.844 -30.802,51.204c-10.915,-18.607 -26.353,-34.653 -45.266,-46.334c6.315,-5.61 11.096,-13.067 13.419,-21.83c6.413,-24.193 -8.325,-49.234 -32.89,-55.885c-24.566,-6.65 -49.716,7.593 -56.129,31.787c-2.323,8.763 -1.871,17.636 0.823,25.685l0.112,0.334c4.799,14.084 16.409,25.658 31.955,29.866c15.668,4.242 31.574,-0.016 42.71,-9.957c18.919,11.699 34.36,27.743 45.266,46.334l0.4,0.685c16.832,29.07 22.646,64.306 13.466,98.941c-18.538,69.934 -91.239,111.106 -162.249,91.883c-71.009,-19.223 -113.61,-91.608 -95.072,-161.543c9.253,-34.907 32.001,-62.649 61.289,-79.28l-0.138,-0.443Zm0.506,1.601c7.868,24.286 24.124,45.608 46.262,59.721c-16.629,6.146 -30.041,19.884 -34.889,38.171c-8.015,30.239 10.405,61.536 41.108,69.848c30.703,8.312 62.137,-9.49 70.152,-39.728c4.848,-18.287 0.027,-36.962 -11.335,-50.685c26.154,-1.04 50.781,-11.295 69.608,-28.354c-18.827,17.059 -43.452,27.313 -69.619,28.341c-7.42,-8.996 -17.632,-15.867 -29.761,-19.15c-12.129,-3.283 -24.372,-2.492 -35.248,1.551c-22.154,-14.109 -38.41,-35.43 -46.278,-59.715Zm181.353,48.566l-0.31,0.283l0.31,-0.283Zm-181.539,-49.145l0.129,0.403l-0.129,-0.403Z" style="fill:#eee;"/></g></g><path d="M93.011,228.568l188.582,0l4.76,-67.544l-188.582,0l6.284,-89.157l203.712,-0l4.761,-67.544l-284.765,-0l-27.763,393.915l294.491,-0l4.76,-67.544l-213.438,0l7.198,-102.126Z" style="fill:#fff;fill-rule:nonzero;"/><path d="M429.729,4.323l-75.649,-0l-27.763,393.915l75.649,-0l27.763,-393.915Z" style="fill:#fff;fill-rule:nonzero;"/><path d="M589.771,101.586c-83.754,-0 -139.353,60.519 -146.246,158.322c-6.588,93.481 40.168,150.758 122.841,150.758c65.383,0 120.965,-37.284 141.752,-94.561l-74.568,-0c-10.823,23.235 -32.849,36.744 -60.407,36.744c-50.793,-0 -56.27,-37.285 -55.111,-76.73l195.606,-0c0.998,-6.484 1.188,-9.186 1.455,-12.969c9.102,-129.143 -66.964,-161.564 -125.322,-161.564Zm49.058,124.28l-116.175,0c7.986,-44.308 28.46,-66.463 61.962,-66.463c35.122,0 53.98,23.776 54.213,66.463Z" style="fill:#fff;fill-rule:nonzero;"/><path d="M888,398.238l121.07,-291.789l-79.972,-0l-73.941,213.438l-48.178,-213.438l-79.972,-0l81.561,291.789l79.432,-0Z" style="fill:#fff;fill-rule:nonzero;"/><path d="M1144.52,101.586c-83.755,-0 -139.353,60.519 -146.246,158.322c-6.589,93.481 40.167,150.758 122.841,150.758c65.382,0 120.964,-37.284 141.752,-94.561l-74.569,-0c-10.823,23.235 -32.849,36.744 -60.407,36.744c-50.793,-0 -56.27,-37.285 -55.111,-76.73l195.607,-0c0.997,-6.484 1.188,-9.186 1.454,-12.969c9.102,-129.143 -66.964,-161.564 -125.321,-161.564Zm49.058,124.28l-116.175,0c7.986,-44.308 28.459,-66.463 61.961,-66.463c35.123,0 53.98,23.776 54.214,66.463Z" style="fill:#fff;fill-rule:nonzero;"/><path d="M1311.3,106.449l-20.565,291.789l75.649,-0l12.339,-175.073c2.437,-34.583 28.352,-57.278 65.096,-57.278c32.421,0 47.375,17.832 44.938,52.414l-12.682,179.937l75.649,-0l13.786,-195.607c4.532,-64.301 -28.541,-101.045 -90.682,-101.045c-39.445,-0 -66.951,14.589 -90.85,47.01l2.971,-42.147l-75.649,-0Z" style="fill:#fff;fill-rule:nonzero;"/><path d="M1742.76,112.393l-42.147,-0l5.522,-78.351l-75.649,0l-5.522,78.351l-37.284,-0l-3.542,50.252l37.284,0l-12.644,179.397c-3.237,45.929 19.48,68.624 69.192,68.624c16.751,0 30.374,-1.621 44.187,-5.944l3.732,-52.954c-7.641,1.081 -12.002,1.621 -17.405,1.621c-19.993,-0 -24.437,-5.944 -22.609,-31.881l11.196,-158.863l42.148,0l3.541,-50.252Z" style="fill:#fff;fill-rule:nonzero;"/><path d="M1846.25,412.287c-1.942,27.558 -23.96,48.632 -50.438,48.632c-5.943,-0 -10.228,-0.541 -19.764,-3.243l-3.999,56.737c11.233,1.621 17.679,2.162 26.865,2.162c82.674,-0 93.4,-44.849 101.833,-64.842l144.294,-345.284l-77.811,-0l-75.486,212.358l-49.335,-212.358l-83.213,-0l87.207,303.677l-0.153,2.161Z" style="fill:#fff;fill-rule:nonzero;"/></g></svg>