<svg clip-rule="evenodd" fill-rule="evenodd" stroke-linejoin="round" stroke-miterlimit="2" viewBox="0 0 2123 706" xmlns="http://www.w3.org/2000/svg" xmlns:xlink="http://www.w3.org/1999/xlink"><clipPath id="a"><path clip-rule="evenodd" d="m-48.684 207.977 2134.25-253.879 72.969 613.398-2134.25 253.879-72.965-613.398z"/></clipPath><clipPath id="b"><path clip-rule="evenodd" d="m-48.684 207.977 2134.25-253.879 72.969 613.398-2134.25 253.879-72.965-613.398z"/></clipPath><clipPath id="c"><path clip-rule="evenodd" d="m-48.684 207.977 2134.25-253.879 72.969 613.398-2134.25 253.879-72.965-613.398z"/></clipPath><clipPath id="d"><path clip-rule="evenodd" d="m-48.684 207.977 2134.25-253.879 72.969 613.398-2134.25 253.879-72.965-613.398z"/></clipPath><clipPath id="e"><path clip-rule="evenodd" d="m-48.684 207.977 2134.25-253.879 72.969 613.398-2134.25 253.879-72.965-613.398z"/></clipPath><clipPath id="f"><path clip-rule="evenodd" d="m-48.684 207.977 2134.25-253.879 72.969 613.398-2134.25 253.879-72.965-613.398z"/></clipPath><clipPath id="g"><path clip-rule="evenodd" d="m-48.684 207.977 2134.25-253.879 72.969 613.398-2134.25 253.879-72.965-613.398z"/></clipPath><clipPath id="h"><path clip-rule="evenodd" d="m-48.684 207.977 2134.25-253.879 72.969 613.398-2134.25 253.879-72.965-613.398z"/></clipPath><clipPath id="i"><path clip-rule="evenodd" d="m-48.684 207.977 2134.25-253.879 72.969 613.398-2134.25 253.879-72.965-613.398z"/></clipPath><clipPath id="j"><path clip-rule="evenodd" d="m-48.684 207.977 2134.25-253.879 72.969 613.398-2134.25 253.879-72.965-613.398z"/></clipPath><clipPath id="k"><path clip-rule="evenodd" d="m-48.684 207.977 2134.25-253.879 72.969 613.398-2134.25 253.879-72.965-613.398z"/></clipPath><clipPath id="l"><path clip-rule="evenodd" d="m-48.684 207.977 2134.25-253.879 72.969 613.398-2134.25 253.879-72.965-613.398z"/></clipPath><clipPath id="m"><path clip-rule="evenodd" d="m-48.684 207.977 2134.25-253.879 72.969 613.398-2134.25 253.879-72.965-613.398z"/></clipPath><clipPath id="n"><path clip-rule="evenodd" d="m-48.684 207.977 2134.25-253.879 72.969 613.398-2134.25 253.879-72.965-613.398z"/></clipPath><g clip-path="url(#a)"><g clip-path="url(#b)"><path d="m1512.06 530.527c.277 1.614.648 3.215 1.101 4.79-2.996 2.371-6.359 2.082-6.992-1.469-.684-3.813 2.262-5.086 5.891-3.321zm341.101-332.937c-5.355-3.77-7.523-9.672-6.219-15.348 1.379-5.988 6.879-10.359 13.207-8.652 6.547 1.769 12.524 5.73 18.715 8.82-3.672 4.082-7.519 8.043-10.922 12.36-4.242 5.39-8.929 6.937-14.781 2.82zm-1840.47 395.598c20.418 7.765 42.895 12.492 60.543 24.355 13.293 8.93 21.719 12.762 34.672 2.918 5.262-3.988 12.731-2.223 16.578 1.816 14.817 15.637 32.774 15.977 52.176 13.739 22.094-2.539 44.301-4.578 66.508-5.555 11.75-.516 23.727 1.051 35.387 2.941 6.07 1.012 9.597 5.813 8.953 13.055-1.254 13.852-6.207 20.297-18.024 20.817-7.347.308-15.523-2.79-21.961-.52-14.289 5.063-27.789 10.492-42.757 2.68-2.149-1.125-6.77-1.266-8.02.14-13.293 14.75-31.035 11.743-45.773 7.676-23.395-6.476-43.125 2.668-64.34 5.598 1.152 13.863 10.953 18.133 18.734 18.496 22.106 1 43.688 6.805 66.531 2.687 27.559-4.957 55.543-7.543 84.11-3.898 21.683 2.785 44.59 3.367 65.984-.434 39.547-7.023 80.086 4.278 118.973-8.468 33.805 4.402 67.012-12.329 101.258-2.614 6.297 1.766 14.332-2.875 21.625-4.234 8.726-1.641 17.476-3.977 26.265-4.223 41.293-1.125 82.672-.347 123.199-10.601 5.516-1.383 11.715.109 17.575-.024 17.797-.414 35.906 1.039 53.304-1.808 58.606-9.645 118.743-4.442 176.801-18.821 4.195-1.047 9.059-.808 13.313.137 33.843 7.688 67.757 4.645 101.429-.281 12.004-1.762 23.52-2.887 35.305-.43 16.172 3.371 31.742 6.863 46.477-5.918 5.632-4.883 13.785-.472 20.918 2.469 16.808 6.902 33.679 10.488 48.718-4.91 7.153-7.313 18.633-7.543 25.164-3.524 23.075 14.172 45.184 9.082 68.43 1.946 8.184-2.493 17.555-1.254 26.402-1.422 35.418-.656 70.715-2.625 105.297-11.235 3.754-10.41-7.261-29.472 16.492-28.191 22.055-17.598 46.692-26.738 75.364-27.547 5.168-.156 11.027-11.914 20.969-7.363-.075 24.363-.075 24.363 23.929 22.25 17.469-2.129 34.946-4.031 52.348-6.578 4.07-.594 8.305-3.239 5.812-8.871-1.722-3.899-3.39-10.196-6.179-10.875-9.711-2.313-20.203-4.942-29.832-.434-12.641 5.93-25.164 6.922-38.297 2.629-.727-3.563-1.453-7.137-2.196-10.695 6.875-2.18 13.661-5.891 20.614-6.223 13.308-.625 17.109-7.82 17.215-19.426.039-2.801 1.332-5.609 2.062-8.422 23.066-6.867 46.582-9.347 70.57-7.707 9.571 12.418 10.161 12.473 18.223 1.375 13.402-3.718 26.805-7.422 40.207-11.136 8.262 6.199 18.324 6.082 27.789 6.781 5.625.41 10.945-3.391 5.168-9.977-4.156-4.726-4.156-9.929-4.398-15.406 17.304 1.125 34.609 2.234 51.918 3.363 15.539-15.211 34.011 1.211 50.402-4.613 2.785-1.004 5.699-1.652 8.414-2.809 21.969-9.23 44.625-13.007 68.336-8.765 10.328 2.879 17.684-3.465 25.543-8.242 7.672-4.258 5.141-7.532-.996-10.446-10.57-6.406-19.574 5.121-29.805 2.59-5.676-1.558-11.933-2.07-16.902-4.875-16.977-9.504-33.914-8.426-51.262-1.707-4.133 1.586-8.348 3.047-12.629 4.137-10.871 2.801-20.34 1.058-27.512-8.637-2.507-3.383-5.601-6.891-9.238-8.742-5.293-2.695-11.918-4.512-9.277-11.762 1.105-3.086 6.719-5.879 10.625-6.398 13-1.739 25.531-7.407 39.265-4.176 5.868 1.391 13.411-1.258 14.458-7.188 3.214-18.382 17.449-18.535 30.363-18.902 24.437-.711 46.629-6.734 65.672-22.414 7.304-6.019 15.718-7.004 24.734-7.863 13.184-1.25 26.18-4.051 39.273-6.192 4.856.786 8.54-1.14 11.336-5.011 9.391 13.144 22.039 9.925 34.567 6.011.582-.175.754-6.039-.528-6.984-3.492-2.555-7.863-3.879-11.867-5.684-7.379 1.973-14.738 3.93-22.105 5.868-2.516-2.551-5.031-5.098-7.547-7.649 11.242-14.594 11.324-14.621 27.266-7.582 14.535-6.398 29.05-12.801 52.168-22.965-34.004-2.043-58.536-4.648-83.071-4.633-22.109.012-44.031-1.062-66.054-2.687-18.04-1.324-28.348-14.469-41.735-22.824-3.308-2.067-1.664-8.633 2.832-10.727 6.61-3.066 13.703-5.062 20.578-7.527 7.403-.719 11.067-5.809 13.828-11.891 2.692-1.488 5.383-2.976 8.075-4.465 8.101-3.175 21.511 2.996 22.492-12.746 2.738-3.015 5.211-6.336 8.297-8.953 2.961-2.492 8.918-3.785 9.371-6.371.808-4.519-4.258-6.184-8.488-6.758-9.77-1.316-19.563-2.523-29.344-3.785-9.215-8.105-21.035-7.035-29.324-2.141-17.059 10.032-26.961-2.367-39.118-8.726-4.918.18-9.82.355-14.757.535-5.418-2.117-10.825-4.25-16.266-6.367h.019-.019c6.375-5.516 13.258-5.524 20.516-1.535-7.258-3.989-14.122-3.965-20.497 1.535 5.422 2.117 10.829 4.25 16.282 6.348 4.902-.161 9.804-.336 14.722-.516-.757-2.793-1.804-5.484-3.121-8.07 4.7-6.344 11.41-10.774 18.844-8.86 21.449 5.571 40.398-3.746 60.121-8.515 5.024-1.215 6.656-5.2 4.586-9.801-1.156-2.59-3.496-6.469-5.453-6.574-34.875-1.762-69.262-12.059-104.566-6.586-2.856-10.157-5.704-20.278-8.543-30.434 17.808-2.703 35.617-5.406 53.425-8.09 10.528.996 20.758.063 26.25-10.324 3.137-5.914-10.82-8.785-29.414-5.262-1.457-.058-2.918-.113-4.359-.191-5.719-.309-12.399-.031-13.746-7.215-1.676-8.879 6.152-8.535 11.297-8.758 13.011-.594 26.093.153 39.113-.406 7.68-.313 8.215-6.691 8.23-12.66.008-6.176-2.664-11.098-7.585-14.813 4.16-14.425 12.429-13.515 22.785-6.39 3.375 2.324 9.504 6.211 10.722 5.164 5.817-4.992.785-10.36-1.886-14.961-5.59-9.637-15.52-12.473-25.512-14.91-7.852-7.649-16.723-12.879-28.02-9.18-21.726 7.113-43.464 9.223-65.89 3.309-5.543-1.485-12.078-1.52-17.676-.219-43.809 10.203-87.887 9.058-132.207 4.668-8.691-.864-18.168.125-26.477 2.777-30.769 9.801-64.828.313-94.476 16.598-3.504 1.922-8.922 1.469-13.207.742-34.274-5.957-68.094.418-101.711 4.894-61.695 8.208-123.973 8.711-185.801 18.016-54.023 8.125-108.414 17.02-163.629 18.844-39.871 1.324-79.59 8.848-119.226 14.66-35.133 5.133-69.942 15.539-105.106 16.68-43.387 1.41-84.168 18.578-127.656 16.726-5.695-.246-11.488 2.852-17.289 4.231-72.305 17.113-145.899 25.32-219.547 33.957-25.035 2.941-50.07 2.187-74.945 5.625-66.204 9.148-132.524 17.48-198.735 26.558-17.558 2.407-35.664 1.43-52.625 8.543-5.129 2.153-12.621 3.61-17.094 1.434-14.261-6.941-25.953-1.496-37.843 4.976-7.926 4.344-15.867 8.278-25.348 6.575-18.219-3.301-35.207 4.367-52.824 6.441-9.457 1.145-23.106-1.055-25.789 11.797-2.242 10.762 8.176 18.141 14.242 26.109 3.398 4.461 8.941 7.305 13.414 10.809-11.871 20.492-27.566 35.277-51.711 38.879-13.586 2.019-23.836 10.957-35.328 17.332 3.672 9.457 10.77 13.16 20.398 14.937 28.442 5.254 28.606 5.606 28.043 32.434-.222 11.828-1.648 23.645-2.457 35.457-.847 12.367 2.512 15.914 14.961 15.016 5.914-.418 11.758-2.653 17.614-2.536 3.886.086 9.445 1.868 11.183 4.739 3.102 5.082 2.18 11.476-1.121 16.91-5.891 9.695-15.043 14.019-25.953 14.574-7.305.375-14.266-.551-21.219 4.102-8.758 5.855-10.308 12.886-4.117 21.054 14.859 19.524 35.512 30.766 57.203 40.043-1.242 11.282-2.324 21.231-3.308 30.391-8.114 4.859-16.297 4.223-22.54 1.32-23.066-10.726-38.89 9.262-58.433 12.985-6.945 1.324-9.059 11.078-9.328 18.773-.278 7.961 6.386 8.762 11.765 10.813" fill="#f5061d" fill-rule="nonzero"/></g></g><g clip-path="url(#c)"><g clip-path="url(#d)"><path d="m1687.56 567.469c-.792.043-2.324 2.668-1.984 3.422.992 2.238 2.711 5.84 4.223 5.871 9.386.191 19.34 1.258 29.523-11.195-12.715.699-22.258 1.144-31.762 1.902" fill="#f5061d" fill-rule="nonzero"/></g></g><g clip-path="url(#e)"><g clip-path="url(#f)"><path d="m1721.5 601.149c-4.32 1.929-7.469 4.941-6.488 10.027.691 3.582 3.406 4.535 8.214 2.562 1.485-2.707 4.622-6.25 5.219-10.175.442-2.817-3.547-3.914-6.945-2.414" fill="#f5061d" fill-rule="nonzero"/></g></g><g clip-path="url(#g)"><g clip-path="url(#h)"><path d="m1616.89 612.336c-7.313-.758-14.692-.855-22.028-1.238-.988-2.184-2.172-4.254-3.539-6.235-14.035 2.875-28.199 5.25-41.992 8.961-3.156.836-5.098 6.25-7.59 9.575 10.906 11.746 22.375 14.984 36.141 3.929 5.269-4.234 12.199-6.386 18.383-9.476 5.687.757 11.492 1.039 17.019 2.433 4.508 1.129 10.031 2.453 11.539-1.992 1.813-5.277-4.312-5.574-7.933-5.957" fill="#f5061d" fill-rule="nonzero"/></g></g><g clip-path="url(#i)"><g clip-path="url(#j)"><path d="m1654.64 606.871c1.675 2.793 3.914 3.285 6.359 1.086.836-.738 1.723-2.808 1.375-3.191-1.371-1.555-3.219-2.66-4.91-3.93-.949 2.008-1.895 4.016-2.824 6.035" fill="#f5061d" fill-rule="nonzero"/></g></g><g clip-path="url(#k)"><g clip-path="url(#l)"><path d="m1820.04 559.586c-1.984 3.246-.332 5.547 3.535 6.043 2.223-1.418 5.895-2.543 6.281-4.359.422-1.946-2.261-4.547-3.582-6.868-2.132 1.707-4.898 3.008-6.234 5.184" fill="#f5061d" fill-rule="nonzero"/></g></g><g clip-path="url(#m)"><g clip-path="url(#n)"><path d="m42.574 231.824c1.571-2.894.192-4.5-3.387-3.773-1.003.187-1.722 1.742-2.566 2.676.824.84 1.559 2.238 2.477 2.379 1.132.148 3.011-.43 3.476-1.282" fill="#f5061d" fill-rule="nonzero"/></g></g></svg>