<svg version="1" xmlns="http://www.w3.org/2000/svg" width="2121.333" height="2121.333" viewBox="0 0 1591 1591" preserveAspectRatio="xMidYMid meet"><metadata>Created by potrace 1.14, written by Peter Selinger 2001-2017</metadata><g fill="#000" stroke="none"><path d="M7535 15899 c-1611 -81 -3195 -675 -4475 -1677 -364 -285 -801 -699 -1094 -1037 -1096 -1260 -1763 -2797 -1925 -4435 -219 -2198 470 -4353 1925 -6025 189 -218 541 -570 759 -759 1270 -1106 2820 -1773 4485 -1930 1493 -142 2990 143 4340 825 1245 629 2333 1612 3100 2803 682 1058 1104 2280 1224 3546 142 1493 -143 2990 -825 4340 -629 1245 -1612 2333 -2803 3100 -1390 896 -3039 1333 -4711 1249z m1365 -1930 c240 -20 520 -77 765 -156 1194 -384 2089 -1382 2340 -2608 49 -240 59 -351 59 -655 1 -289 -4 -352 -45 -590 -90 -519 -316 -1034 -638 -1450 -93 -120 -221 -264 -302 -338 -38 -35 -69 -70 -69 -77 0 -7 16 -42 36 -77 423 -744 602 -1664 488 -2503 -168 -1236 -853 -2278 -1924 -2930 -132 -80 -399 -213 -560 -279 -1101 -447 -2334 -400 -3415 130 -673 330 -1244 836 -1657 1469 -677 1037 -848 2293 -472 3466 192 599 517 1131 969 1585 256 257 509 456 793 623 39 24 72 50 72 57 0 8 -13 63 -29 122 -92 336 -131 698 -111 1043 36 631 220 1178 572 1706 199 298 516 623 822 840 443 315 965 525 1501 602 39 5 93 13 120 17 63 9 396 20 490 16 39 -1 126 -7 195 -13z" transform="translate(0.000000,1591.000000) scale(0.100000,-0.100000)"/><path d="M8454 11989 c-112 -12 -293 -60 -403 -108 -358 -154 -634 -447 -765 -811 -238 -659 66 -1409 700 -1732 578 -295 1255 -183 1697 281 176 186 288 399 349 671 33 142 32 413 0 560 -139 624 -628 1062 -1272 1140 -96 11 -189 11 -306 -1z" transform="translate(0.000000,1591.000000) scale(0.100000,-0.100000)"/><path d="M7241 7839 c-301 -34 -577 -134 -827 -300 -155 -103 -363 -312 -467 -469 -168 -254 -258 -516 -288 -836 -34 -367 81 -796 300 -1116 304 -445 761 -722 1305 -789 137 -16 390 -7 530 21 714 140 1240 658 1398 1375 20 87 22 130 22 335 0 207 -2 247 -22 340 -108 497 -399 912 -823 1175 -208 129 -455 218 -704 254 -106 16 -330 21 -424 10z" transform="translate(0.000000,1591.000000) scale(0.100000,-0.100000)"/></g></svg>