<?xml version="1.0" encoding="UTF-8" standalone="no"?><!DOCTYPE svg PUBLIC "-//W3C//DTD SVG 1.1//EN" "http://www.w3.org/Graphics/SVG/1.1/DTD/svg11.dtd"><svg width="100%" height="100%" viewBox="0 0 466 466" version="1.1" xmlns="http://www.w3.org/2000/svg" xmlns:xlink="http://www.w3.org/1999/xlink" xml:space="preserve" xmlns:serif="http://www.serif.com/" style="fill-rule:evenodd;clip-rule:evenodd;stroke-linejoin:round;stroke-miterlimit:2;"><g id="Apple-Podcasts" serif:id="Apple Podcasts"><g><path d="M232.683,465.358c-128.307,0 -232.683,-104.376 -232.683,-232.683c-0,-128.29 104.376,-232.675 232.683,-232.675c128.299,-0 232.675,104.385 232.675,232.675c0,128.307 -104.376,232.683 -232.675,232.683Z" style="fill:#a154ff;fill-rule:nonzero;"/><path d="M229.785,144.016c41.419,-1.593 76.278,30.692 77.871,72.111c0.039,0.93 0.06,1.865 0.06,2.795c0.008,20.709 -8.573,40.488 -23.704,54.634c-1.232,1.164 -1.887,2.804 -1.806,4.503c0.281,5.145 0.179,10.149 -0.157,15.79c-0.059,1.007 0.714,1.869 1.72,1.925c0.4,0.029 0.791,-0.09 1.126,-0.306c25.336,-17.252 40.501,-45.909 40.51,-76.559c-0.056,-51.227 -41.619,-92.714 -92.842,-92.667c-1.164,0 -2.332,0.026 -3.5,0.072c-49.031,1.895 -88.377,42.32 -88.993,91.402c-0.395,31.074 14.818,60.28 40.51,77.769c0.824,0.565 1.95,0.357 2.515,-0.467c0.229,-0.336 0.34,-0.744 0.314,-1.147c-0.378,-5.264 -0.429,-10.544 -0.161,-15.812c0.093,-1.699 -0.574,-3.343 -1.81,-4.503c-15.65,-14.617 -24.261,-35.254 -23.662,-56.652c1.186,-39.417 32.608,-71.223 72.009,-72.888Zm2.494,-63.47c-75.293,0.208 -136.992,61.291 -137.926,136.583c-0.752,60.99 38.177,113.169 92.548,132.281c0.973,0.34 2.035,-0.17 2.375,-1.147c0.097,-0.276 0.127,-0.582 0.089,-0.88c-0.722,-4.736 -1.389,-9.481 -2.005,-14.171c-0.208,-1.648 -1.27,-3.067 -2.791,-3.743c-44.384,-19.367 -72.918,-63.355 -72.506,-111.779c0.637,-65.505 54.129,-118.911 119.638,-119.438c66.966,-0.544 121.635,53.789 121.635,120.632c-0.056,48.003 -28.522,91.418 -72.519,110.602c-1.521,0.671 -2.583,2.09 -2.795,3.743c-0.62,4.728 -1.287,9.447 -2.001,14.159c-0.157,1.006 0.531,1.949 1.534,2.102c0.31,0.051 0.616,0.022 0.904,-0.085c53.844,-18.933 92.557,-70.301 92.557,-130.538c0.004,-76.397 -62.268,-138.534 -138.737,-138.321Zm-31.801,127.059c-0,17.787 14.418,32.201 32.2,32.201c17.787,-0 32.205,-14.414 32.205,-32.201c-0,-17.782 -14.418,-32.2 -32.205,-32.2c-17.782,-0 -32.2,14.418 -32.2,32.2Zm60.679,55.467c-5.909,-6.223 -16.266,-10.233 -28.509,-10.233c-12.243,-0 -22.612,3.993 -28.513,10.233c-3.024,3.033 -4.876,7.052 -5.216,11.325c-1.007,9.189 -0.442,17.112 0.633,29.758c1.015,12.056 2.965,28.143 5.514,44.52c1.809,11.648 3.279,17.944 4.613,22.451c2.167,7.294 10.28,13.687 22.965,13.687c12.681,-0 20.782,-6.376 22.957,-13.687c1.333,-4.503 2.816,-10.786 4.617,-22.451c2.549,-16.377 4.499,-32.447 5.523,-44.52c1.07,-12.646 1.631,-20.565 0.628,-29.758c-0.331,-4.273 -2.183,-8.292 -5.212,-11.325Z" style="fill:#fff;fill-rule:nonzero;"/></g></g></svg>