<?xml version="1.0" encoding="UTF-8" standalone="no"?><!DOCTYPE svg PUBLIC "-//W3C//DTD SVG 1.1//EN" "http://www.w3.org/Graphics/SVG/1.1/DTD/svg11.dtd"><svg width="100%" height="100%" viewBox="0 0 463 463" version="1.1" xmlns="http://www.w3.org/2000/svg" xmlns:xlink="http://www.w3.org/1999/xlink" xml:space="preserve" xmlns:serif="http://www.serif.com/" style="fill-rule:evenodd;clip-rule:evenodd;stroke-linejoin:round;stroke-miterlimit:2;"><g id="Facebook"><path d="M192.506,459.447c-109.087,-19.25 -192.506,-114.22 -192.506,-228.44c0,-127.054 103.953,-231.007 231.007,-231.007c127.054,0 231.007,103.953 231.007,231.007c0,114.22 -83.419,209.19 -192.506,228.44l-12.834,-10.267l-51.334,0l-12.834,10.267Z" style="fill:url(#_Linear1);fill-rule:nonzero;"/><path d="M320.843,295.176l10.267,-64.169l-61.602,0l0,-44.918c0,-17.967 6.417,-32.084 34.651,-32.084l29.518,-0l-0,-59.035c-16.684,-2.567 -34.651,-5.134 -51.335,-5.134c-52.618,0 -89.836,32.084 -89.836,89.836l-0,51.335l-57.752,0l0,64.169l57.752,-0l-0,162.988c12.834,2.567 25.667,3.85 38.501,3.85c12.834,0 25.667,-1.283 38.501,-3.85l0,-162.988l51.335,-0Z" style="fill:#fff;fill-rule:nonzero;"/></g><defs><linearGradient id="_Linear1" x1="0" y1="0" x2="1" y2="0" gradientUnits="userSpaceOnUse" gradientTransform="matrix(2.7311e-14,-446.023,446.023,2.7311e-14,231.007,446.023)"><stop offset="0" style="stop-color:#0062e0;stop-opacity:1"/><stop offset="1" style="stop-color:#19afff;stop-opacity:1"/></linearGradient></defs></svg>