<?xml version="1.0" encoding="UTF-8" standalone="no"?><!DOCTYPE svg PUBLIC "-//W3C//DTD SVG 1.1//EN" "http://www.w3.org/Graphics/SVG/1.1/DTD/svg11.dtd"><svg width="100%" height="100%" viewBox="0 0 466 466" version="1.1" xmlns="http://www.w3.org/2000/svg" xmlns:xlink="http://www.w3.org/1999/xlink" xml:space="preserve" xmlns:serif="http://www.serif.com/" style="fill-rule:evenodd;clip-rule:evenodd;stroke-linejoin:round;stroke-miterlimit:2;"><g id="Gettr"><g><path d="M232.683,465.358c-128.307,0 -232.683,-104.376 -232.683,-232.683c-0,-128.29 104.376,-232.675 232.683,-232.675c128.299,-0 232.675,104.385 232.675,232.675c0,128.307 -104.376,232.683 -232.675,232.683Z" style="fill:#ef3c3e;fill-rule:nonzero;"/><path d="M230.963,249.954c-29.552,-61.422 -28.702,-112.22 76.217,-147.974c14.988,-5.373 41.203,-8.715 72.09,-31.099c-14.745,43.395 -28.278,45.245 -32.1,55.214c7.948,-0.895 12.136,-4.895 20.692,-9.133c-2.181,7.914 -4.856,15.689 -8.01,23.279c-4.858,8.17 -10.551,15.831 -16.991,22.863c1.074,0.453 2.23,0.686 3.398,0.686c1.168,0 2.324,-0.233 3.399,-0.686c3.058,-1.183 5.798,-3.041 8.009,-5.432c0,10.744 -11.529,38.858 -39.322,51.035c-36.409,16.057 -82.831,7.521 -87.14,41.128" style="fill:#fff;fill-rule:nonzero;"/><path d="M180.975,334.238c-0.812,0.108 -1.595,0.376 -2.299,0.79c-0.704,0.414 -1.316,0.964 -1.798,1.617c-0.482,0.653 -0.824,1.394 -1.007,2.182c-0.182,0.786 -0.2,1.601 -0.053,2.395c0.667,4.715 4.368,28.472 6.068,39.874l0.97,0l0.729,0.357l0.789,0.299c1.218,0.516 2.476,0.935 3.762,1.253c1.032,0.359 2.245,0.597 3.459,0.896c-0.122,-5.79 -2.974,-38.441 -3.763,-44.411c-0.066,-0.807 -0.3,-1.593 -0.685,-2.309c-0.385,-0.716 -0.915,-1.348 -1.556,-1.855c-0.643,-0.508 -1.382,-0.883 -2.176,-1.101c-0.793,-0.218 -1.624,-0.274 -2.44,-0.166" style="fill:#fff;fill-rule:nonzero;"/><path d="M283.589,334.238c-0.825,-0.153 -1.674,-0.136 -2.492,0.05c-0.818,0.186 -1.587,0.537 -2.26,1.031c-0.673,0.493 -1.235,1.119 -1.649,1.837c-0.415,0.718 -0.673,1.513 -0.759,2.334c-0.79,5.552 -3.581,38.442 -4.127,45.008c1.213,-0 2.366,-0.538 3.459,-0.896c1.284,-0.328 2.541,-0.747 3.762,-1.253l0.729,-0.299l0.666,-0.358l0.365,-0l1.214,-0.418c1.82,-11.401 5.522,-35.158 6.068,-39.873c0.147,-0.795 0.128,-1.61 -0.054,-2.396c-0.182,-0.787 -0.525,-1.528 -1.007,-2.181c-0.482,-0.653 -1.094,-1.203 -1.798,-1.617c-0.704,-0.414 -1.486,-0.682 -2.3,-0.79" style="fill:#fff;fill-rule:nonzero;"/><path d="M274.668,382.767c-0.686,0.057 -1.376,0.057 -2.063,0l-1.881,0.418l-2.791,0l-1.76,0.357l-67.418,0l-1.82,-0.357l-2.792,0l-1.213,-0.299c-1.19,0.209 -2.416,0.063 -3.52,-0.418l0.485,5.193l0.85,9.073c3.016,2.057 6.421,3.499 10.013,4.239c10.36,2.503 21.01,3.646 31.676,3.402c4.045,-0 7.868,-0.12 11.469,-0.358c6.847,-0.296 13.642,-1.316 20.267,-3.044c3.587,-0.76 6.987,-2.199 10.013,-4.239l1.275,-14.206l-0.547,-0" style="fill:#fff;fill-rule:nonzero;"/><path d="M206.788,463.16l-4.693,-44.459l-1.093,-10.147l-0.485,-4.297l0,-4c10.431,2.164 21.079,3.145 31.736,2.925c4.188,0 7.95,-0.358 11.47,-0.358l-0.668,0.178c6.799,-0.277 13.56,-1.136 20.207,-2.566l-6.707,64.244c-5.897,0.45 -11.849,0.678 -17.853,0.678c-10.829,0 -21.488,-0.743 -31.914,-2.198Z" style="fill:#fff;"/><path d="M249.001,387.244l7.403,0l1.759,-0.299l1.7,0c0.97,-9.789 3.702,-37.545 4.247,-42.679c0.546,-5.133 -5.097,-6.745 -6.068,-6.923c-0.869,-0.128 -1.754,-0.084 -2.606,0.126c-0.852,0.211 -1.653,0.584 -2.358,1.1c-0.704,0.516 -1.299,1.164 -1.749,1.905c-0.45,0.743 -0.746,1.565 -0.872,2.419c-0.607,5.969 -1.942,41.067 -2.124,45.843l0.668,0" style="fill:#fff;fill-rule:nonzero;"/><path d="M215.2,387.662l0,-44.768c-0.303,-5.671 -6.068,-5.969 -7.282,-5.969c-2.027,0.178 -3.923,1.069 -5.339,2.507l-0,3.282c-0,5.313 1.82,35.098 2.245,43.814l12.197,0l-1.821,1.134Z" style="fill:#fff;fill-rule:nonzero;"/><path d="M237.654,339.49l-0.545,-0.477l-0.303,-0l-0.911,-0.537c-1.06,-0.433 -2.19,-0.676 -3.338,-0.716c-1.147,0.035 -2.279,0.277 -3.337,0.716l-0.849,0.537l-0.305,-0l-0.545,0.477c-1.092,1.146 -1.681,2.669 -1.638,4.238l-0,44.71l13.592,-0l0,-44.829c0.042,-1.569 -0.546,-3.092 -1.639,-4.238" style="fill:#fff;fill-rule:nonzero;"/><path d="M110.099,270.248l-0,11.283c39.444,3.044 60.682,21.488 64.384,39.216l-0,3.821l1.335,-0l3.519,2.985l0.85,-0l3.276,0.835l0.79,-0c1.82,0.418 3.822,0.717 6.068,1.074l87.018,-0l2.185,-0.418l1.517,-0l3.276,-0.835l2.731,-0l0,-3.821c3.458,-17.907 24.94,-36.172 64.323,-39.216l0,-14.924l-241.272,0Z" style="fill:#fff;fill-rule:nonzero;"/><path d="M218.622,464.921l-4.513,-61.621l12.015,0.777l-0.369,61.17l-5.028,-0.192l-2.105,-0.134Z" style="fill:#fff;"/></g></g></svg>