<?xml version="1.0" encoding="UTF-8" standalone="no"?><!DOCTYPE svg PUBLIC "-//W3C//DTD SVG 1.1//EN" "http://www.w3.org/Graphics/SVG/1.1/DTD/svg11.dtd"><svg width="100%" height="100%" viewBox="0 0 466 466" version="1.1" xmlns="http://www.w3.org/2000/svg" xmlns:xlink="http://www.w3.org/1999/xlink" xml:space="preserve" xmlns:serif="http://www.serif.com/" style="fill-rule:evenodd;clip-rule:evenodd;stroke-linejoin:round;stroke-miterlimit:2;"><g id="Google-Podcasts" serif:id="Google Podcasts"><g><path d="M232.683,465.358c-128.307,0 -232.683,-104.376 -232.683,-232.683c-0,-128.29 104.376,-232.675 232.683,-232.675c128.299,-0 232.675,104.385 232.675,232.675c0,128.307 -104.376,232.683 -232.675,232.683Z" style="fill:#fff;fill-rule:nonzero;"/><g><rect x="214.914" y="180.924" width="35.534" height="103.384" style="fill:#fcb72a;fill-rule:nonzero;"/><path d="M108.295,205.09c9.85,0 17.834,7.984 17.834,17.834c0,9.85 -7.984,17.835 -17.834,17.835c-9.85,-0 -17.835,-7.985 -17.835,-17.835c0,-9.85 7.985,-17.834 17.835,-17.834Z" style="fill:#266ab4;fill-rule:nonzero;"/><path d="M108.295,224.474c9.85,0 17.834,7.985 17.834,17.835c0,9.847 -7.984,17.834 -17.834,17.834c-9.85,0 -17.835,-7.987 -17.835,-17.834c0,-9.85 7.985,-17.835 17.835,-17.835Z" style="fill:#266ab4;fill-rule:nonzero;"/><rect x="90.592" y="222.924" width="35.538" height="19.384" style="fill:#266ab4;fill-rule:nonzero;"/><path d="M357.063,224.474c9.85,0 17.835,7.985 17.835,17.835c-0,9.847 -7.985,17.834 -17.835,17.834c-9.849,0 -17.834,-7.987 -17.834,-17.834c0,-9.85 7.985,-17.835 17.834,-17.835Z" style="fill:#4d7cbe;fill-rule:nonzero;"/><path d="M357.063,205.09c9.85,0 17.835,7.984 17.835,17.834c-0,9.85 -7.985,17.835 -17.835,17.835c-9.849,-0 -17.834,-7.985 -17.834,-17.835c0,-9.85 7.985,-17.834 17.834,-17.834Z" style="fill:#4d7cbe;fill-rule:nonzero;"/><rect x="339.357" y="222.924" width="35.541" height="19.384" style="fill:#4d7cbe;fill-rule:nonzero;"/><path d="M169.679,263.24c9.847,0 17.834,7.988 17.834,17.834c0,9.85 -7.987,17.835 -17.834,17.835c-9.85,-0 -17.834,-7.985 -17.834,-17.835c-0,-9.846 7.984,-17.834 17.834,-17.834Z" style="fill:#f05040;fill-rule:nonzero;"/><path d="M169.679,282.624c9.847,0 17.834,7.988 17.834,17.835c0,9.853 -7.987,17.834 -17.834,17.834c-9.85,0 -17.834,-7.981 -17.834,-17.834c-0,-9.847 7.984,-17.835 17.834,-17.835Z" style="fill:#f05040;fill-rule:nonzero;"/><rect x="151.848" y="281.074" width="35.537" height="19.384" style="fill:#f05040;fill-rule:nonzero;"/><path d="M169.679,146.937c9.847,-0 17.834,7.984 17.834,17.834c0,9.85 -7.987,17.835 -17.834,17.835c-9.85,-0 -17.834,-7.985 -17.834,-17.835c-0,-9.85 7.984,-17.834 17.834,-17.834Z" style="fill:#f05040;fill-rule:nonzero;"/><path d="M169.679,209.999c9.847,0 17.834,7.985 17.834,17.835c0,9.85 -7.987,17.834 -17.834,17.834c-9.85,0 -17.834,-7.984 -17.834,-17.834c-0,-9.85 7.984,-17.835 17.834,-17.835Z" style="fill:#f05040;fill-rule:nonzero;"/><rect x="151.848" y="164.771" width="35.537" height="63.453" style="fill:#f05040;fill-rule:nonzero;"/><path d="M295.679,166.321c9.85,0 17.834,7.985 17.834,17.835c0,9.85 -7.984,17.834 -17.834,17.834c-9.85,0 -17.834,-7.984 -17.834,-17.834c-0,-9.85 7.984,-17.835 17.834,-17.835Z" style="fill:#30b261;fill-rule:nonzero;"/><path d="M295.679,146.937c9.85,-0 17.834,7.984 17.834,17.834c0,9.85 -7.984,17.835 -17.834,17.835c-9.85,-0 -17.834,-7.985 -17.834,-17.835c-0,-9.85 7.984,-17.834 17.834,-17.834Z" style="fill:#30b261;fill-rule:nonzero;"/><rect x="277.973" y="164.771" width="35.541" height="19.384" style="fill:#30b261;fill-rule:nonzero;"/><path d="M232.748,109.846c9.85,0 17.834,7.985 17.834,17.835c0,9.847 -7.984,17.834 -17.834,17.834c-9.85,0 -17.834,-7.987 -17.834,-17.834c-0,-9.85 7.984,-17.835 17.834,-17.835Z" style="fill:#fcb72a;fill-rule:nonzero;"/><path d="M232.748,90.462c9.85,-0 17.834,7.984 17.834,17.834c0,9.847 -7.984,17.835 -17.834,17.835c-9.85,-0 -17.834,-7.988 -17.834,-17.835c-0,-9.85 7.984,-17.834 17.834,-17.834Z" style="fill:#fcb72a;fill-rule:nonzero;"/><rect x="214.914" y="108.296" width="35.534" height="19.384" style="fill:#fcb72a;fill-rule:nonzero;"/><path d="M232.748,339.228c9.85,-0 17.834,7.987 17.834,17.834c0,9.853 -7.984,17.834 -17.834,17.834c-9.85,0 -17.834,-7.981 -17.834,-17.834c-0,-9.847 7.984,-17.834 17.834,-17.834Z" style="fill:#fcb72a;fill-rule:nonzero;"/><path d="M232.748,319.843c9.85,0 17.834,7.988 17.834,17.835c0,9.853 -7.984,17.834 -17.834,17.834c-9.85,-0 -17.834,-7.981 -17.834,-17.834c-0,-9.847 7.984,-17.835 17.834,-17.835Z" style="fill:#fcb72a;fill-rule:nonzero;"/><rect x="214.914" y="337.678" width="35.534" height="19.384" style="fill:#fcb72a;fill-rule:nonzero;"/><path d="M295.679,282.624c9.85,0 17.834,7.988 17.834,17.835c0,9.853 -7.984,17.834 -17.834,17.834c-9.85,0 -17.834,-7.981 -17.834,-17.834c-0,-9.847 7.984,-17.835 17.834,-17.835Z" style="fill:#30b261;fill-rule:nonzero;"/><path d="M295.679,219.69c9.85,0 17.834,7.988 17.834,17.834c0,9.854 -7.984,17.838 -17.834,17.838c-9.85,-0 -17.834,-7.984 -17.834,-17.838c-0,-9.846 7.984,-17.834 17.834,-17.834Z" style="fill:#30b261;fill-rule:nonzero;"/><rect x="277.973" y="237.524" width="35.541" height="63.069" style="fill:#30b261;fill-rule:nonzero;"/><path d="M232.748,163.09c9.85,0 17.834,7.984 17.834,17.834c0,9.85 -7.984,17.835 -17.834,17.835c-9.85,-0 -17.834,-7.985 -17.834,-17.835c-0,-9.85 7.984,-17.834 17.834,-17.834Z" style="fill:#fcb72a;fill-rule:nonzero;"/><path d="M232.748,266.474c9.85,0 17.834,7.985 17.834,17.835c0,9.85 -7.984,17.834 -17.834,17.834c-9.85,0 -17.834,-7.984 -17.834,-17.834c-0,-9.85 7.984,-17.835 17.834,-17.835Z" style="fill:#fcb72a;fill-rule:nonzero;"/></g></g></g></svg>