<?xml version="1.0" encoding="UTF-8" standalone="no"?><!DOCTYPE svg PUBLIC "-//W3C//DTD SVG 1.1//EN" "http://www.w3.org/Graphics/SVG/1.1/DTD/svg11.dtd"><svg width="100%" height="100%" viewBox="0 0 456 456" version="1.1" xmlns="http://www.w3.org/2000/svg" xmlns:xlink="http://www.w3.org/1999/xlink" xml:space="preserve" xmlns:serif="http://www.serif.com/" style="fill-rule:evenodd;clip-rule:evenodd;stroke-linejoin:round;stroke-miterlimit:2;"><g id="Instagram"><path d="M427.41,225.999c-0,110.267 -89.395,199.653 -199.654,199.653c-110.267,0 -199.653,-89.386 -199.653,-199.653c-0,-110.259 89.386,-199.653 199.653,-199.653c110.259,-0 199.654,89.394 199.654,199.653Z" style="fill:#fff;fill-rule:nonzero;"/><path d="M345.707,283.121c0,32.777 -26.59,59.35 -59.366,59.35l-114.051,-0c-32.785,-0 -59.358,-26.573 -59.358,-59.35l0,-114.067c0,-32.785 26.573,-59.358 59.358,-59.358l114.051,-0c32.776,-0 59.366,26.573 59.366,59.358l0,114.067Zm27.052,-114.067c0,-47.732 -38.686,-86.41 -86.418,-86.41l-114.051,-0c-47.732,-0 -86.426,38.678 -86.426,86.41l-0,114.067c-0,47.723 38.694,86.41 86.426,86.41l114.051,-0c47.732,-0 86.418,-38.687 86.418,-86.41l0,-114.067Zm-142.96,104.265c-25.018,0 -45.386,-20.36 -45.386,-45.378c-0,-25.034 20.368,-45.395 45.386,-45.395c25.026,0 45.386,20.361 45.386,45.395c0,25.018 -20.36,45.378 -45.386,45.378Zm-0,-116.236c-39.065,-0 -70.85,31.785 -70.85,70.858c0,39.065 31.785,70.841 70.85,70.841c39.073,0 70.85,-31.776 70.85,-70.841c-0,-39.073 -31.777,-70.858 -70.85,-70.858Zm74.986,-21.621c-9.315,-0 -16.864,7.549 -16.864,16.863c0,9.314 7.549,16.863 16.864,16.863c9.322,0 16.871,-7.549 16.871,-16.863c0,-9.314 -7.549,-16.863 -16.871,-16.863Zm-76.852,320.412c-125.685,-0 -227.933,-102.257 -227.933,-227.933c-0,-125.685 102.248,-227.941 227.933,-227.941c125.676,-0 227.932,102.256 227.932,227.941c0,125.676 -102.256,227.933 -227.932,227.933Z" style="fill:url(#_Radial1);"/></g><defs><radialGradient id="_Radial1" cx="0" cy="0" r="1" gradientUnits="userSpaceOnUse" gradientTransform="matrix(565.507,-481.523,481.523,565.507,43.7557,384.755)"><stop offset="0" style="stop-color:#ffdd86;stop-opacity:1"/><stop offset="0.05" style="stop-color:#fcb650;stop-opacity:1"/><stop offset="0.17" style="stop-color:#f48067;stop-opacity:1"/><stop offset="0.25" style="stop-color:#f05982;stop-opacity:1"/><stop offset="0.35" style="stop-color:#ee4b9a;stop-opacity:1"/><stop offset="0.5" style="stop-color:#8650a0;stop-opacity:1"/><stop offset="0.8" style="stop-color:#6b51a2;stop-opacity:1"/><stop offset="1" style="stop-color:#4b5ba9;stop-opacity:1"/></radialGradient></defs></svg>