<?xml version="1.0" encoding="UTF-8" standalone="no"?><!DOCTYPE svg PUBLIC "-//W3C//DTD SVG 1.1//EN" "http://www.w3.org/Graphics/SVG/1.1/DTD/svg11.dtd"><svg width="100%" height="100%" viewBox="0 0 462 462" version="1.1" xmlns="http://www.w3.org/2000/svg" xmlns:xlink="http://www.w3.org/1999/xlink" xml:space="preserve" xmlns:serif="http://www.serif.com/" style="fill-rule:evenodd;clip-rule:evenodd;stroke-linejoin:round;stroke-miterlimit:2;"><g id="Odysee"><circle cx="230.59" cy="230.59" r="230.59" style="fill:url(#_Linear1);"/><path d="M106.734,189.137c1.012,-0.545 1.646,-1.605 1.646,-2.755c0,-0.644 -0.198,-1.272 -0.568,-1.799c-1.021,-1.479 -3.029,-1.936 -4.589,-1.043c-0.514,0.623 -0.795,1.405 -0.795,2.213c-0,1.907 1.569,3.476 3.476,3.476c0.268,0 0.534,-0.031 0.795,-0.092l0.035,-0Zm195.09,-87.499c1.026,-0.52 1.674,-1.577 1.674,-2.727c0,-0.673 -0.222,-1.327 -0.631,-1.861c-1.018,-1.461 -3.002,-1.915 -4.554,-1.043c-1.46,1.018 -1.914,3.001 -1.043,4.554c1.008,1.472 2.994,1.942 4.554,1.077Zm41.473,126.538c-0.067,0.283 -0.1,0.574 -0.1,0.865c-0,2.079 1.71,3.789 3.789,3.789c2.078,0 3.789,-1.71 3.789,-3.789c-0,-1.74 -1.199,-3.268 -2.89,-3.681c-2.022,-0.419 -4.047,0.823 -4.588,2.816Zm-54.822,127.928c-1.425,-0.695 -2.816,0.348 -3.476,2.121c-0.055,0.224 -0.083,0.454 -0.083,0.685c0,1.583 1.303,2.885 2.886,2.885c1.583,0 2.885,-1.302 2.885,-2.885c0,-1.33 -0.919,-2.496 -2.212,-2.806Zm-159.528,-236.389c0.126,0.028 0.254,0.042 0.382,0.042c0.973,-0 1.773,-0.801 1.773,-1.773c0,-0.855 -0.618,-1.594 -1.459,-1.745c-1.043,-0 -2.121,0.347 -2.121,1.39c-0.052,0.158 -0.078,0.322 -0.078,0.488c0,0.835 0.669,1.531 1.503,1.563l0,0.035Zm11.194,174.233c-1.425,0.347 -2.468,1.39 -2.12,2.815c0.138,1.206 1.17,2.126 2.383,2.126c0.145,-0 0.29,-0.014 0.432,-0.04c1.391,0 2.121,-1.39 2.121,-2.816c-0.122,-1.219 -1.161,-2.159 -2.387,-2.159c-0.144,0 -0.287,0.013 -0.429,0.039l0,0.035Zm233.851,-119.307l-2.12,9.142l-8.309,3.963l9.108,2.121l3.894,8.065l2.086,-9.143l8.238,-3.719l-9.142,-2.121l-3.755,-8.308Zm-118.924,-60.001c-1.459,0.444 -2.464,1.8 -2.464,3.325c0,0.548 0.13,1.088 0.378,1.576c1.512,3.259 1.879,6.935 1.043,10.429c-0.358,2.113 1.059,4.152 3.163,4.554l0.696,0c1.794,0.007 3.315,-1.376 3.476,-3.163c1.31,-4.921 0.816,-10.151 -1.391,-14.74c-0.472,-1.414 -1.805,-2.374 -3.296,-2.374c-0.559,0 -1.11,0.135 -1.605,0.393Zm-1.738,-15.122c-0.884,-1.928 -2.056,-3.71 -3.477,-5.284c-1.476,-1.387 -3.807,-1.387 -5.284,-0c-1.421,1.461 -1.421,3.822 0,5.284c0.853,1.063 1.565,2.232 2.121,3.476c1.021,1.852 3.315,2.627 5.249,1.773c1.754,-1.112 2.364,-3.415 1.391,-5.249Zm133.386,245.949c-5.314,-21.924 -12.286,-43.411 -20.858,-64.277c-7.196,-18.147 -30.626,-40.499 -45.748,-51.624c-2.776,-2.072 -4.414,-5.339 -4.414,-8.802c0,-2.97 1.205,-5.816 3.336,-7.884c14.774,-14.253 41.055,-41.716 49.572,-56.073c5.562,-10.15 16.513,-29.409 16.999,-46.096c1.078,-12.41 -0.625,-26.767 -17.068,-33.337c-8.206,-3.671 -17.814,-2.433 -24.821,3.198c-10.429,7.161 -13.905,26.767 -21.101,46.304c-8.483,22.527 -21.832,25.377 -28.889,25.377c-7.056,0 -2.433,-7.439 -18.598,-54.195c-16.165,-46.757 -59.097,-38.24 -91.392,-18.911c-41.125,24.577 -22.874,76.965 -12.654,110.72c-5.666,5.632 -27.428,9.838 -47.104,20.371c-12.236,6.57 -22.7,10.811 -32.92,19.016c-14.218,11.437 -20.371,24.334 -15.435,41.924c2.137,6.177 6.605,11.282 12.445,14.218c11.611,5.284 28.714,-2.399 54.891,-22.075c12.84,-8.328 26.806,-14.778 41.472,-19.154c14.667,-4.376 15.818,24.334 30.592,53.083c14.774,28.749 -15.852,38.24 -19.016,38.24c-3.163,-0 -51.449,-4.693 -40.394,36.084c11.054,40.777 69.248,26.002 99.109,6.326c29.862,-19.675 22.492,-83.987 22.492,-83.987c29.166,-4.554 38.309,26.35 41.159,42.168c2.851,15.817 -3.476,43.245 26.003,43.94c4.163,-0.033 8.303,-0.63 12.306,-1.773c15.922,-3.685 25.134,-11.68 28.923,-20.197c1.7,-3.969 2.09,-8.379 1.113,-12.584Zm-147.118,-191.197c-29.861,11.263 -44.288,-3.477 -46.026,-30.557c-2.121,-30.592 26.35,-38.24 26.35,-38.24c31.635,-10.428 40.082,4.554 47.452,27.046c7.37,22.492 1.773,30.592 -27.776,41.82l0,-0.069Z" style="fill:#fff;fill-rule:nonzero;"/></g><defs><linearGradient id="_Linear1" x1="0" y1="0" x2="1" y2="0" gradientUnits="userSpaceOnUse" gradientTransform="matrix(191.364,662.076,-662.076,191.364,166.257,8.01079)"><stop offset="0" style="stop-color:#ef1970;stop-opacity:1"/><stop offset="0.14" style="stop-color:#f23b5c;stop-opacity:1"/><stop offset="0.45" style="stop-color:#f77d35;stop-opacity:1"/><stop offset="0.7" style="stop-color:#fcad18;stop-opacity:1"/><stop offset="0.89" style="stop-color:#fecb07;stop-opacity:1"/><stop offset="1" style="stop-color:#ffd600;stop-opacity:1"/></linearGradient></defs></svg>