<?xml version="1.0" encoding="UTF-8" standalone="no"?><!DOCTYPE svg PUBLIC "-//W3C//DTD SVG 1.1//EN" "http://www.w3.org/Graphics/SVG/1.1/DTD/svg11.dtd"><svg width="100%" height="100%" viewBox="0 0 466 466" version="1.1" xmlns="http://www.w3.org/2000/svg" xmlns:xlink="http://www.w3.org/1999/xlink" xml:space="preserve" xmlns:serif="http://www.serif.com/" style="fill-rule:evenodd;clip-rule:evenodd;stroke-linejoin:round;stroke-miterlimit:2;"><g id="Rumble"><path d="M232.683,465.358c-128.298,0 -232.683,-104.376 -232.683,-232.675c-0,-128.307 104.385,-232.683 232.683,-232.683c128.299,0 232.684,104.376 232.684,232.683c-0,128.299 -104.385,232.675 -232.684,232.675Z" style="fill:#74a441;fill-rule:nonzero;"/><path d="M356.66,276.614c23.179,-24.139 23.075,-62.041 -0.201,-86.085c-40.436,-41.77 -93.296,-74.758 -149.587,-87.624c-30.369,-6.942 -59.901,11.908 -68.761,41.924c-16.863,57.132 -19.427,121.411 -1.975,178.235c9.187,29.919 40.212,46.312 70.537,39.163c57.753,-13.613 108.884,-42.811 149.987,-85.614l0,0.001Zm-79.422,-59.011c10.503,8.247 10.504,23.941 -0.105,32.047c-15.81,12.088 -33.142,22.043 -51.549,29.609c-12.36,5.085 -25.823,-2.942 -27.148,-16.302c-1.929,-19.45 -1.346,-39.836 1.632,-60.163c1.949,-13.302 15.597,-21.024 27.781,-15.48c17.119,7.793 33.823,18.064 49.389,30.289Z" style="fill:#fff;"/></g></svg>