<?xml version="1.0" encoding="UTF-8" standalone="no"?><!DOCTYPE svg PUBLIC "-//W3C//DTD SVG 1.1//EN" "http://www.w3.org/Graphics/SVG/1.1/DTD/svg11.dtd"><svg width="100%" height="100%" viewBox="0 0 126 126" version="1.1" xmlns="http://www.w3.org/2000/svg" xmlns:xlink="http://www.w3.org/1999/xlink" xml:space="preserve" xmlns:serif="http://www.serif.com/" style="fill-rule:evenodd;clip-rule:evenodd;stroke-linejoin:round;stroke-miterlimit:2;"><g id="Spotify"><ellipse cx="62.808" cy="62.806" rx="51.037" ry="49.772" style="fill:#fff;"/><path d="M62.807,0c-34.686,0 -62.807,28.12 -62.807,62.807c0,34.688 28.121,62.805 62.807,62.805c34.691,0 62.808,-28.117 62.808,-62.805c0,-34.685 -28.117,-62.804 -62.808,-62.804l0,-0.003Zm28.803,90.585c-1.125,1.846 -3.54,2.43 -5.385,1.298c-14.746,-9.008 -33.31,-11.048 -55.173,-6.053c-2.106,0.48 -4.207,-0.839 -4.687,-2.947c-0.482,-2.108 0.833,-4.208 2.945,-4.688c23.925,-5.466 44.447,-3.112 61.003,7.005c1.845,1.133 2.43,3.541 1.297,5.385Zm7.688,-17.101c-1.418,2.303 -4.433,3.031 -6.735,1.613c-16.883,-10.377 -42.617,-13.382 -62.586,-7.32c-2.59,0.782 -5.325,-0.678 -6.111,-3.263c-0.78,-2.589 0.68,-5.319 3.265,-6.107c22.81,-6.921 51.167,-3.569 70.554,8.345c2.303,1.418 3.03,4.432 1.613,6.732l-0,-0Zm0.659,-17.808c-20.242,-12.024 -53.639,-13.129 -72.966,-7.264c-3.103,0.942 -6.385,-0.81 -7.326,-3.914c-0.94,-3.105 0.81,-6.384 3.916,-7.328c22.186,-6.735 59.067,-5.434 82.372,8.401c2.798,1.657 3.713,5.263 2.055,8.05c-1.65,2.792 -5.265,3.712 -8.047,2.055l-0.004,-0Z" style="fill:#1ed760;"/></g></svg>