<?xml version="1.0" encoding="UTF-8" standalone="no"?><!DOCTYPE svg PUBLIC "-//W3C//DTD SVG 1.1//EN" "http://www.w3.org/Graphics/SVG/1.1/DTD/svg11.dtd"><svg width="100%" height="100%" viewBox="0 0 466 466" version="1.1" xmlns="http://www.w3.org/2000/svg" xmlns:xlink="http://www.w3.org/1999/xlink" xml:space="preserve" xmlns:serif="http://www.serif.com/" style="fill-rule:evenodd;clip-rule:evenodd;stroke-linejoin:round;stroke-miterlimit:2;"><g id="Twitter"><path d="M232.683,465.367c-128.298,-0 -232.683,-104.385 -232.683,-232.684c0,-128.298 104.385,-232.683 232.683,-232.683c128.299,-0 232.684,104.385 232.684,232.683c-0,128.299 -104.385,232.684 -232.684,232.684Z" style="fill:#00b9e6;fill-rule:nonzero;"/><path d="M339.877,155.598c9.292,-1.569 18.779,-3.93 27.388,-7.826c1.1,-0.511 1.023,-0.716 1.023,0l0,0.231c0,0.699 0.077,2.404 -1.347,4.322c-6.343,8.534 -13.095,16.181 -21.595,22.567c-1.227,0.92 -3.308,1.884 -3.308,3.64c0,44.818 -11.441,89.576 -44.11,122.041c-41.595,41.322 -104.01,52.576 -159.408,37.273c-10.724,-2.967 -20.989,-7.119 -30.827,-12.328c-3.266,-1.782 -6.463,-3.623 -9.608,-5.695c-0.802,-0.656 -1.39,-1.244 -0.708,-1.662c0.665,-0.341 1.194,-0.367 3.674,-0c15.491,1.526 31.451,-0.784 46.114,-5.9c8.065,-2.813 25.38,-8.482 30.376,-16.096c0.102,-0.17 0.23,-0.17 0.358,-0.358c-2.029,-0.477 -4.041,-0.477 -6.053,-0.827c-15.056,-4.297 -35.158,-11.85 -44.468,-37.239c-0.597,-1.483 -0,-2.242 1.534,-1.952c12.396,0.972 16.847,0.299 21.169,-0.648c-2.43,-0.418 -4.919,-1.253 -7.17,-2.191c-18.969,-7.221 -32.814,-25.721 -35.338,-45.722c-0.298,-2.31 -0.477,-4.262 -0.349,-6.394c0.111,-1.483 0.759,-1.961 2.071,-1.133c9.745,5.038 20.683,6.223 21.578,6.052c-2.43,-1.901 -4.68,-3.972 -6.88,-6.052c-16.428,-15.568 -22.814,-47.265 -9.668,-67.002c1.075,-1.594 1.782,-1.594 3.095,-0.102c30.069,34.264 67.12,50.257 111.819,56.907c1.185,0.179 1.296,0 1.117,-1.304c-1.16,-7.878 -1.313,-15.576 0.588,-23.368c1.978,-8.065 5.832,-15.687 11.049,-22.132c5.056,-6.232 11.398,-11.399 18.509,-15.107c7.093,-3.717 14.945,-5.968 22.933,-6.488c8.21,-0.537 16.548,0.793 24.178,3.896c5.806,2.362 10.964,5.567 15.763,9.659c1.006,0.827 1.902,1.842 2.848,2.916c0.588,0.588 1.287,0.818 2.242,0.588c11.424,-2.856 22.157,-6.897 32.541,-12.455c0.469,-0.23 0.861,-0.358 1.45,-0.12c0.477,0.358 0.29,0.955 0.059,1.424c-1.858,6.07 -5.157,11.68 -9.122,16.625c-2.599,3.221 -9.109,11.214 -13.517,11.96l-0.004,0.001c0.001,-0.001 0.003,-0.001 0.004,-0.001Z" style="fill:#fff;fill-rule:nonzero;"/></g></svg>