<?xml version="1.0" encoding="UTF-8" standalone="no"?><!DOCTYPE svg PUBLIC "-//W3C//DTD SVG 1.1//EN" "http://www.w3.org/Graphics/SVG/1.1/DTD/svg11.dtd"><svg width="100%" height="100%" viewBox="0 0 463 463" version="1.1" xmlns="http://www.w3.org/2000/svg" xmlns:xlink="http://www.w3.org/1999/xlink" xml:space="preserve" xmlns:serif="http://www.serif.com/" style="fill-rule:evenodd;clip-rule:evenodd;stroke-linejoin:round;stroke-miterlimit:2;"><g id="Twitch"><circle cx="231.007" cy="231.007" r="231.007" style="fill:#a970ff;"/><path d="M121.057,93.734l-17.364,46.307l-0,185.204l63.64,-0l-0,34.746l34.744,0l34.71,-34.746l52.08,-0l69.454,-69.43l0,-162.081l-237.264,0Zm23.134,23.139l190.986,-0l0,127.342l-40.52,40.524l-63.65,-0l-34.7,34.699l-0,-34.699l-52.116,-0l0,-167.866Zm63.666,115.781l23.15,0l-0,-69.45l-23.15,-0l-0,69.45Zm63.654,0l23.145,0l0,-69.45l-23.145,-0l-0,69.45Z" style="fill:#fff;fill-rule:nonzero;"/></g></svg>