<?xml version="1.0" encoding="UTF-8" standalone="no"?><!DOCTYPE svg PUBLIC "-//W3C//DTD SVG 1.1//EN" "http://www.w3.org/Graphics/SVG/1.1/DTD/svg11.dtd"><svg width="100%" height="100%" viewBox="0 0 466 466" version="1.1" xmlns="http://www.w3.org/2000/svg" xmlns:xlink="http://www.w3.org/1999/xlink" xml:space="preserve" xmlns:serif="http://www.serif.com/" style="fill-rule:evenodd;clip-rule:evenodd;stroke-linejoin:round;stroke-miterlimit:2;"><g id="YouTube"><path d="M232.683,465.358c-128.307,0 -232.683,-104.376 -232.683,-232.683c0,-128.29 104.376,-232.675 232.683,-232.675c128.299,0 232.675,104.385 232.675,232.675c0,128.307 -104.376,232.683 -232.675,232.683Z" style="fill:#ef3c3e;fill-rule:nonzero;"/><path d="M274.219,237.372l-61.809,33.906c-2.694,1.449 -5.107,-0.495 -5.107,-3.547l0,-69.584c0,-3.103 2.49,-5.039 5.184,-3.512l62.227,35.687c2.762,1.569 2.284,5.541 -0.495,7.05Zm97.786,-39.975c0,-33.002 -26.761,-59.755 -59.754,-59.755l-154.983,0c-33.002,0 -59.763,26.753 -59.763,59.755l-0,72.636c-0,32.993 26.761,59.755 59.763,59.755l154.983,-0c32.993,-0 59.754,-26.762 59.754,-59.755l0,-72.636Z" style="fill:#fff;fill-rule:nonzero;"/></g></svg>